<svg width="25" height="26" viewBox="0 0 25 26" fill="none" xmlns="http://www.w3.org/2000/svg">
<path d="M22.1874 10.5C22.1874 10.2514 22.0887 10.0129 21.9129 9.83712C21.737 9.6613 21.4986 9.56253 21.2499 9.56253C21.0013 9.56253 20.7628 9.6613 20.587 9.83712C20.4112 10.0129 20.3124 10.2514 20.3124 10.5H22.1874ZM4.68745 10.5C4.68745 10.2514 4.58868 10.0129 4.41286 9.83712C4.23705 9.6613 3.99859 9.56253 3.74995 9.56253C3.50131 9.56253 3.26285 9.6613 3.08704 9.83712C2.91122 10.0129 2.81245 10.2514 2.81245 10.5H4.68745ZM23.0874 13.6625C23.1733 13.7546 23.2768 13.8285 23.3918 13.8798C23.5068 13.931 23.6309 13.9585 23.7568 13.9608C23.8827 13.963 24.0077 13.9398 24.1244 13.8927C24.2412 13.8455 24.3472 13.7753 24.4362 13.6863C24.5253 13.5973 24.5954 13.4913 24.6426 13.3745C24.6898 13.2578 24.7129 13.1328 24.7107 13.0069C24.7085 12.881 24.6809 12.7569 24.6297 12.6419C24.5784 12.5269 24.5046 12.4234 24.4124 12.3375L23.0874 13.6625ZM12.4999 1.75003L13.1624 1.08753C12.9867 0.911967 12.7484 0.813354 12.4999 0.813354C12.2515 0.813354 12.0132 0.911967 11.8374 1.08753L12.4999 1.75003ZM0.587448 12.3375C0.495339 12.4234 0.421462 12.5269 0.370222 12.6419C0.318982 12.7569 0.291429 12.881 0.289208 13.0069C0.286987 13.1328 0.310143 13.2578 0.357294 13.3745C0.404446 13.4913 0.474626 13.5973 0.56365 13.6863C0.652673 13.7753 0.758716 13.8455 0.875451 13.8927C0.992186 13.9398 1.11722 13.963 1.2431 13.9608C1.36898 13.9585 1.49312 13.931 1.60812 13.8798C1.72312 13.8285 1.82662 13.7546 1.91245 13.6625L0.587448 12.3375ZM6.24995 25.1875H18.7499V23.3125H6.24995V25.1875ZM22.1874 21.75V10.5H20.3124V21.75H22.1874ZM4.68745 21.75V10.5H2.81245V21.75H4.68745ZM24.4124 12.3375L13.1624 1.08753L11.8374 2.41253L23.0874 13.6625L24.4124 12.3375ZM11.8374 1.08753L0.587448 12.3375L1.91245 13.6625L13.1624 2.41253L11.8374 1.08753ZM18.7499 25.1875C19.6616 25.1875 20.536 24.8254 21.1806 24.1807C21.8253 23.5361 22.1874 22.6617 22.1874 21.75H20.3124C20.3124 22.6125 19.6124 23.3125 18.7499 23.3125V25.1875ZM6.24995 23.3125C5.38745 23.3125 4.68745 22.6125 4.68745 21.75H2.81245C2.81245 22.6617 3.17461 23.5361 3.81927 24.1807C4.46392 24.8254 5.33827 25.1875 6.24995 25.1875V23.3125Z" fill="#FCFCFC"/>
</svg>
