<svg width="31" height="30" viewBox="0 0 31 30" fill="none" xmlns="http://www.w3.org/2000/svg">
<path d="M24.25 6.69995L17.0463 13.9037C16.8442 14.1085 16.6034 14.2711 16.338 14.382C16.0725 14.493 15.7877 14.5501 15.5 14.5501C15.2123 14.5501 14.9275 14.493 14.662 14.382C14.3966 14.2711 14.1558 14.1085 13.9537 13.9037L6.75 6.69995M24.25 15.4499L17.0463 22.6537C16.8442 22.8585 16.6034 23.0211 16.338 23.132C16.0725 23.243 15.7877 23.3001 15.5 23.3001C15.2123 23.3001 14.9275 23.243 14.662 23.132C14.3966 23.0211 14.1558 22.8585 13.9537 22.6537L6.75 15.4499" stroke="#FCFCFC" stroke-width="2" stroke-linecap="round" stroke-linejoin="round"/>
</svg>
