<svg width="31" height="30" viewBox="0 0 31 30" fill="none" xmlns="http://www.w3.org/2000/svg">
<path d="M25.1874 12.5C25.1874 12.2514 25.0887 12.0129 24.9129 11.8371C24.737 11.6613 24.4986 11.5625 24.2499 11.5625C24.0013 11.5625 23.7628 11.6613 23.587 11.8371C23.4112 12.0129 23.3124 12.2514 23.3124 12.5H25.1874ZM7.68745 12.5C7.68745 12.2514 7.58868 12.0129 7.41286 11.8371C7.23705 11.6613 6.99859 11.5625 6.74995 11.5625C6.50131 11.5625 6.26285 11.6613 6.08704 11.8371C5.91122 12.0129 5.81245 12.2514 5.81245 12.5H7.68745ZM26.0874 15.6625C26.1733 15.7546 26.2768 15.8285 26.3918 15.8798C26.5068 15.931 26.6309 15.9585 26.7568 15.9608C26.8827 15.963 27.0077 15.9398 27.1244 15.8927C27.2412 15.8455 27.3472 15.7753 27.4362 15.6863C27.5253 15.5973 27.5954 15.4913 27.6426 15.3745C27.6898 15.2578 27.7129 15.1328 27.7107 15.0069C27.7085 14.881 27.6809 14.7569 27.6297 14.6419C27.5784 14.5269 27.5046 14.4234 27.4124 14.3375L26.0874 15.6625ZM15.4999 3.75003L16.1624 3.08753C15.9867 2.91197 15.7484 2.81335 15.4999 2.81335C15.2515 2.81335 15.0132 2.91197 14.8374 3.08753L15.4999 3.75003ZM3.58745 14.3375C3.49534 14.4234 3.42146 14.5269 3.37022 14.6419C3.31898 14.7569 3.29143 14.881 3.28921 15.0069C3.28699 15.1328 3.31014 15.2578 3.35729 15.3745C3.40445 15.4913 3.47463 15.5973 3.56365 15.6863C3.65267 15.7753 3.75872 15.8455 3.87545 15.8927C3.99219 15.9398 4.11722 15.963 4.2431 15.9608C4.36898 15.9585 4.49312 15.931 4.60812 15.8798C4.72312 15.8285 4.82662 15.7546 4.91245 15.6625L3.58745 14.3375ZM9.24995 27.1875H21.7499V25.3125H9.24995V27.1875ZM25.1874 23.75V12.5H23.3124V23.75H25.1874ZM7.68745 23.75V12.5H5.81245V23.75H7.68745ZM27.4124 14.3375L16.1624 3.08753L14.8374 4.41253L26.0874 15.6625L27.4124 14.3375ZM14.8374 3.08753L3.58745 14.3375L4.91245 15.6625L16.1624 4.41253L14.8374 3.08753ZM21.7499 27.1875C22.6616 27.1875 23.536 26.8254 24.1806 26.1807C24.8253 25.5361 25.1874 24.6617 25.1874 23.75H23.3124C23.3124 24.6125 22.6124 25.3125 21.7499 25.3125V27.1875ZM9.24995 25.3125C8.38745 25.3125 7.68745 24.6125 7.68745 23.75H5.81245C5.81245 24.6617 6.17461 25.5361 6.81927 26.1807C7.46392 26.8254 8.33827 27.1875 9.24995 27.1875V25.3125Z" fill="#A3A3A3"/>
</svg>
