<svg width="40" height="40" viewBox="0 0 40 40" fill="none" xmlns="http://www.w3.org/2000/svg">
<path d="M36 13.6111V27.3889C36 29.6727 35.0928 31.863 33.4779 33.4779C31.863 35.0928 29.6727 36 27.3889 36H13.6111C11.3273 36 9.13703 35.0928 7.52214 33.4779C5.90724 31.863 5 29.6727 5 27.3889V13.6111C5 11.3273 5.90724 9.13703 7.52214 7.52214C9.13703 5.90724 11.3273 5 13.6111 5H27.3889C29.6727 5 31.863 5.90724 33.4779 7.52214C35.0928 9.13703 36 11.3273 36 13.6111Z" stroke="#FCFCFC" stroke-width="2" stroke-linecap="round" stroke-linejoin="round"/>
<path d="M18.7775 36.0002V20.5002C18.7775 16.7337 19.6386 13.6113 25.6663 13.6113M15.333 22.2224H25.6663" stroke="#FCFCFC" stroke-width="2" stroke-linecap="round" stroke-linejoin="round"/>
</svg>
