<svg width="40" height="40" viewBox="0 0 40 40" fill="none" xmlns="http://www.w3.org/2000/svg">
<path d="M20 12.7843C18.5729 12.7843 17.1778 13.2075 15.9912 14.0004C14.8046 14.7932 13.8797 15.9202 13.3336 17.2387C12.7874 18.5572 12.6445 20.008 12.923 21.4077C13.2014 22.8074 13.8886 24.0931 14.8977 25.1023C15.9069 26.1114 17.1926 26.7986 18.5923 27.077C19.992 27.3555 21.4428 27.2126 22.7613 26.6664C24.0798 26.1203 25.2068 25.1954 25.9996 24.0088C26.7925 22.8222 27.2157 21.4271 27.2157 20C27.2132 18.087 26.4522 16.2532 25.0995 14.9005C23.7468 13.5478 21.913 12.7868 20 12.7843ZM20 25.3333C18.9452 25.3333 17.914 25.0205 17.037 24.4345C16.1599 23.8485 15.4763 23.0155 15.0726 22.041C14.669 21.0664 14.5634 19.9941 14.7691 18.9595C14.9749 17.925 15.4829 16.9746 16.2288 16.2288C16.9746 15.4829 17.925 14.9749 18.9595 14.7691C19.9941 14.5634 21.0664 14.669 22.041 15.0726C23.0155 15.4763 23.8485 16.1599 24.4345 17.037C25.0205 17.914 25.3333 18.9452 25.3333 20C25.3333 21.4145 24.7714 22.771 23.7712 23.7712C22.771 24.7714 21.4145 25.3333 20 25.3333ZM27.5294 4H12.4706C10.2248 4.00249 8.07173 4.89573 6.48373 6.48373C4.89573 8.07173 4.00249 10.2248 4 12.4706V27.5294C4.00249 29.7752 4.89573 31.9283 6.48373 33.5163C8.07173 35.1043 10.2248 35.9975 12.4706 36H27.5294C29.7752 35.9975 31.9283 35.1043 33.5163 33.5163C35.1043 31.9283 35.9975 29.7752 36 27.5294V12.4706C35.9975 10.2248 35.1043 8.07173 33.5163 6.48373C31.9283 4.89573 29.7752 4.00249 27.5294 4ZM34.1176 27.5294C34.1176 29.2767 33.4235 30.9525 32.188 32.188C30.9525 33.4235 29.2767 34.1176 27.5294 34.1176H12.4706C10.7233 34.1176 9.04754 33.4235 7.812 32.188C6.57647 30.9525 5.88235 29.2767 5.88235 27.5294V12.4706C5.88235 10.7233 6.57647 9.04754 7.812 7.812C9.04754 6.57647 10.7233 5.88235 12.4706 5.88235H27.5294C29.2767 5.88235 30.9525 6.57647 32.188 7.812C33.4235 9.04754 34.1176 10.7233 34.1176 12.4706V27.5294ZM29.7255 11.8431C29.7255 12.1534 29.6335 12.4567 29.4611 12.7146C29.2888 12.9726 29.0438 13.1736 28.7572 13.2924C28.4705 13.4111 28.1551 13.4422 27.8508 13.3816C27.5466 13.3211 27.2671 13.1717 27.0477 12.9523C26.8283 12.7329 26.6789 12.4534 26.6184 12.1492C26.5579 11.8449 26.5889 11.5295 26.7076 11.2428C26.8264 10.9562 27.0274 10.7112 27.2854 10.5389C27.5433 10.3665 27.8466 10.2745 28.1569 10.2745C28.5729 10.2745 28.9719 10.4398 29.2661 10.734C29.5602 11.0281 29.7255 11.4271 29.7255 11.8431Z" fill="#FCFCFC"/>
</svg>
