<svg width="40" height="40" viewBox="0 0 40 40" fill="none" xmlns="http://www.w3.org/2000/svg">
<path d="M11.6667 16.7982V28.5877M18.3334 21.8509V28.5877M18.3334 21.8509C18.3334 21.1873 18.4627 20.5303 18.714 19.9173C18.9652 19.3043 19.3335 18.7473 19.7978 18.2781C20.2621 17.8089 20.8133 17.4368 21.42 17.1828C22.0266 16.9289 22.6768 16.7982 23.3334 16.7982C23.99 16.7982 24.6402 16.9289 25.2468 17.1828C25.8534 17.4368 26.4046 17.8089 26.8689 18.2781C27.3332 18.7473 27.7015 19.3043 27.9528 19.9173C28.204 20.5303 28.3334 21.1873 28.3334 21.8509V28.5877M18.3334 21.8509V16.7982M11.68 11.7456H11.665" stroke="#FCFCFC" stroke-width="2" stroke-linecap="round" stroke-linejoin="round"/>
<path d="M4.16699 20.1665C4.16699 12.6246 4.16699 8.85198 6.48533 6.50924C8.80366 4.1665 12.5353 4.1665 20.0003 4.1665C27.4637 4.1665 31.197 4.1665 33.5153 6.50924C35.8337 8.85198 35.8337 12.6229 35.8337 20.1665C35.8337 27.7084 35.8337 31.481 33.5153 33.8238C31.197 36.1665 27.4653 36.1665 20.0003 36.1665C12.537 36.1665 8.80366 36.1665 6.48533 33.8238C4.16699 31.481 4.16699 27.7101 4.16699 20.1665Z" stroke="#FCFCFC" stroke-width="2" stroke-linecap="round" stroke-linejoin="round"/>
</svg>
